<?xml version="1.0" ?><svg id="Layer_1" style="enable-background:new 0 0 700 700;" version="1.1" viewBox="0 0 700 700" xml:space="preserve" xmlns="http://www.w3.org/2000/svg" xmlns:xlink="http://www.w3.org/1999/xlink"><style type="text/css">
	.st0{fill:#F9809A;stroke:#000000;stroke-width:10;stroke-linecap:round;stroke-linejoin:round;stroke-miterlimit:10;}
	.st1{fill:#EFC4AC;stroke:#000000;stroke-width:10;stroke-linecap:round;stroke-linejoin:round;stroke-miterlimit:10;}
	.st2{fill:none;stroke:#000000;stroke-width:10;stroke-linecap:round;stroke-linejoin:round;stroke-miterlimit:10;}
</style><g><path class="st0" d="M600.2,346.51v169.21c0,49.31-39.97,89.28-89.28,89.28H195.9c-53.06,0-96.08-43.02-96.08-96.08V346.51"/><path class="st1" d="M458.81,299.72c83.65,8.37,141.38,26.2,141.38,46.8c0,9.19-11.61,17.91-31.87,25.37   c-7.81,2.9-13,10.37-13,18.73v82.75c0,7.4-2.97,14.03-7.81,18.87s-11.55,7.81-18.87,7.81c-14.79,0-26.69-11.96-26.69-26.69v-68.72   c0-8.85-7.81-15.62-16.52-14.45h-0.35c-7.19,0.97-12.58,7.19-12.58,14.45v36.23c0,7.12-2.9,13.48-7.54,18.11   c-4.63,4.63-10.99,7.54-18.11,7.54c-14.17,0-25.72-11.48-25.72-25.65v-23.51c0-11.41-9.4-20.46-20.81-19.98   c-16.25,0.69-33.05,1.11-50.33,1.11c-138.2,0-250.19-23.3-250.19-51.99c0-21.78,64.36-40.37,155.69-48.12"/><line class="st2" x1="351.65" x2="351.58" y1="294.54" y2="294.54"/><path class="st0" d="M397.71,218.88l20.77,18.37c46.82,45.41-14.89,84.35-14.89,84.35c-42.98,23.69-87.12,13.07-101.48,8.54   c-3.12-0.99-5.65-3.32-6.9-6.35c-5.72-13.95-20.02-57.15-0.15-102.04c0,0,33.43-64.87,82.74-22.17L397.71,218.88z"/><path class="st2" d="M411.55,212.48c0,0,11.84-22.97,37.98-19"/><path class="st2" d="M398.65,137.02c0,0,19.53,45.67,59.57,60.23c0,0,36.07,17.87,44.35,29.12"/><path class="st1" d="M522.49,170.29l2.9,3.66l-7.81,6.29c-17.01,13.62-41.89,10.92-55.51-6.08l-5.88-7.33   c-13.62-17.01-10.92-41.83,6.08-55.51l7.74-6.22l6.22,7.74"/><path class="st1" d="M476.24,112.84l21.25-16.69c3.52-2.76,8.68-0.26,8.68,4.22v18.55h19c4.69,0,7.74,4.92,5.67,9.12l-10.97,22.19   l13.96,3.42c3.79,0.93,4.67,5.92,1.43,8.08l-12.76,8.54"/><circle class="st2" cx="341.07" cy="225.08" r="6.89"/><circle class="st2" cx="371.55" cy="250.17" r="6.89"/><circle class="st2" cx="395.79" cy="280.5" r="6.89"/><circle class="st2" cx="356.9" cy="290.15" r="6.89"/><circle class="st2" cx="330.97" cy="263.95" r="6.89"/></g></svg>